<svg width="104" height="101" xmlns="http://www.w3.org/2000/svg" xmlns:xlink="http://www.w3.org/1999/xlink" xml:space="preserve" overflow="hidden"><defs><clipPath id="clip0"><rect x="0" y="0" width="104" height="101"/></clipPath><clipPath id="clip1"><rect x="0" y="0" width="104" height="100"/></clipPath><clipPath id="clip2"><rect x="0" y="0" width="400" height="100"/></clipPath></defs><g clip-path="url(#clip0)"><g clip-path="url(#clip1)"><g clip-path="url(#clip2)"><path d="M34.7 45 51.3 45 92.6 0.8 3.6 0.8 3.6 98.2 4.1 98.2Z" fill="#050549"/><path d="M93.7 0.8 64 57.1 46.2 57.1 6.2 98.2 101 98.2 101 0.8Z" fill="#0088AD"/><path d="M155.8 55.7C157.6 53.4 158.4 50.8 158.4 47.8 158.4 44.5 157.4 41.6 155.5 39.1 153.6 36.7 151 35.1 147.9 34.4 150.6 33.6 152.8 32.2 154.4 30.1 156 28 156.8 25.7 156.8 23.1 156.8 20.4 155.9 18.1 154.2 16.1 152.5 14.1 150 12.5 146.9 11.4 143.7 10.3 140 9.7 135.8 9.7L108.9 9.7 108.9 62.7 137.1 62.7C141.4 62.7 145.1 62.1 148.3 60.9 151.6 59.7 154.1 58 155.8 55.7ZM126.5 22.6 134.9 22.6C136.1 22.6 137.1 22.9 137.8 23.6 138.5 24.3 138.9 25.2 138.9 26.3 138.9 27.5 138.5 28.4 137.8 29.1 137.1 29.8 136.1 30.2 134.9 30.2L126.5 30.2 126.5 22.6ZM138.8 48.7C137.8 49.5 136.5 49.9 134.9 49.9L126.5 49.9 126.5 41.8 134.9 41.8C136.5 41.8 137.8 42.2 138.8 42.9 139.8 43.6 140.3 44.5 140.3 45.7 140.2 46.9 139.8 47.9 138.8 48.7Z" fill="#050549"/><path d="M199.6 9.7 181.6 9.7 159.2 62.7 177.2 62.7 179.9 55.2 199.8 55.2 202.4 62.7 221.1 62.7 199.6 9.7ZM184.5 42.7 190.1 27.2 195.5 42.7 184.5 42.7Z" fill="#050549"/><path d="M297 9.7 274.6 62.7 264.2 45.4C266.9 43.7 269 41.5 270.4 38.6 271.8 35.8 272.6 32.4 272.6 28.6 272.6 22.5 270.6 17.9 266.7 14.6 262.8 11.3 257.2 9.6 250 9.6L224.3 9.6 224.3 62.6 241.9 62.6 241.9 49 248.5 49 254.9 62.8 274.7 62.8 274.7 62.8 292.7 62.8 295.4 55.3 315.3 55.3 317.9 62.8 336.6 62.8 315 9.7 297 9.7ZM254.3 34C253.3 35.1 251.8 35.7 249.9 35.7L241.8 35.7 241.8 23 249.9 23C251.8 23 253.3 23.5 254.3 24.6 255.3 25.7 255.9 27.2 255.9 29.2 255.9 31.3 255.4 32.8 254.3 34ZM299.8 42.7 305.4 27.2 310.8 42.7 299.8 42.7Z" fill="#050549"/><path d="M374.1 30.9 393.1 9.7 372.9 9.7 357.1 29.1 357.1 9.7 339.6 9.7 339.6 62.8 357.1 62.8 357.1 49.9 362.1 44.3 373.3 62.8 394.3 62.8Z" fill="#050549"/><path d="M110.8 76.5 113.5 76.5 119.5 88.1 125.5 76.5 128.2 76.5 128.2 93 126.1 93 126.1 79.8 120.2 91.2 118.8 91.2 112.9 79.8 112.9 93 110.8 93 110.8 76.5Z" fill="#0088AD"/><path d="M145.8 93 144.1 89 135.4 89 133.7 93 131.3 93 138.6 76.5 141 76.5 148.3 93 145.8 93ZM136.2 87 143.1 87 139.6 79 136.2 87Z" fill="#0088AD"/><path d="M161.9 93 158.6 87.8C158.2 87.8 157.9 87.8 157.7 87.8L153.5 87.8 153.5 93 151.2 93 151.2 76.5 157.7 76.5C159.8 76.5 161.4 77 162.5 78 163.6 79 164.2 80.3 164.2 82.1 164.2 83.4 163.9 84.6 163.3 85.5 162.7 86.4 161.8 87.1 160.6 87.5L164.4 93.1 161.9 93.1ZM157.7 85.8C159.1 85.8 160.2 85.5 161 84.9 161.8 84.3 162.1 83.4 162.1 82.2 162.1 81 161.7 80.1 161 79.5 160.3 78.9 159.2 78.6 157.7 78.6L153.5 78.6 153.5 85.9 157.7 85.9Z" fill="#0088AD"/><path d="M182.7 93 180 93 174.2 85.4 171.2 88.7 171.2 93 168.9 93 168.9 76.5 171.2 76.5 171.2 85.8 179.6 76.5 182.3 76.5 175.8 83.6 182.7 93Z" fill="#0088AD"/><path d="M186.1 76.5 197.6 76.5 197.6 78.6 188.4 78.6 188.4 83.7 196.6 83.7 196.6 85.8 188.4 85.8 188.4 91 197.9 91 197.9 93 186.2 93 186.2 76.5Z" fill="#0088AD"/><path d="M200 76.5 212.9 76.5 212.9 78.6 207.6 78.6 207.6 93 205.3 93 205.3 78.6 200 78.6 200 76.5Z" fill="#0088AD"/><path d="M222.8 76.5 225.5 76.5 231.5 88.1 237.5 76.5 240.2 76.5 240.2 93 238.1 93 238.1 79.8 232.2 91.2 230.8 91.2 224.9 79.8 224.9 93 222.8 93 222.8 76.5Z" fill="#0088AD"/><path d="M257.8 93 256.1 89 247.4 89 245.7 93 243.3 93 250.6 76.5 253 76.5 260.3 93 257.8 93ZM248.2 87 255.1 87 251.6 79 248.2 87Z" fill="#0088AD"/><path d="M277.1 93 274.4 93 268.6 85.4 265.6 88.7 265.6 93 263.3 93 263.3 76.5 265.6 76.5 265.6 85.8 274 76.5 276.7 76.5 270.2 83.6 277.1 93Z" fill="#0088AD"/><path d="M280.5 76.5 282.8 76.5 282.8 93 280.5 93 280.5 76.5Z" fill="#0088AD"/><path d="M299.8 76.5 302 76.5 302 93 299.7 93 290.3 80.2 290.3 93 288 93 288 76.5 290.3 76.5 299.8 89.3 299.8 76.5Z" fill="#0088AD"/><path d="M318.8 85 320.8 85 320.8 91C320 91.7 319 92.2 317.9 92.6 316.8 93 315.7 93.2 314.6 93.2 313 93.2 311.6 92.8 310.2 92.1 308.9 91.4 307.8 90.3 307.1 89 306.4 87.7 306 86.3 306 84.7 306 83.2 306.4 81.7 307.2 80.5 308 79.2 309 78.2 310.4 77.5 311.7 76.8 313.2 76.4 314.8 76.4 315.9 76.4 317.1 76.6 318.2 77 319.3 77.4 320.2 78 321 78.7L319.7 80.3C319 79.7 318.3 79.2 317.4 78.9 316.5 78.6 315.7 78.4 314.8 78.4 313.6 78.4 312.5 78.7 311.5 79.2 310.5 79.7 309.7 80.5 309.2 81.5 308.6 82.5 308.3 83.5 308.3 84.7 308.3 85.9 308.6 86.9 309.2 87.9 309.8 88.9 310.6 89.7 311.6 90.2 312.6 90.8 313.7 91.1 314.9 91.1 315.6 91.1 316.3 91 317 90.8 317.7 90.6 318.4 90.3 319 89.8L319 85Z" fill="#0088AD"/></g></g></g></svg>