<?xml version="1.0" encoding="UTF-8"?> <!-- Generator: Adobe Illustrator 21.0.2, SVG Export Plug-In . SVG Version: 6.00 Build 0) --> <svg xmlns="http://www.w3.org/2000/svg" xmlns:xlink="http://www.w3.org/1999/xlink" version="1.1" id="Layer_1" x="0px" y="0px" viewBox="0 0 400 100" style="enable-background:new 0 0 400 100;" xml:space="preserve"> <style type="text/css"> .st0{fill:#050549;} .st1{fill:#0088AD;} </style> <g> <polygon class="st0" points="34.7,45 51.3,45 92.6,0.8 3.6,0.8 3.6,98.2 4.1,98.2 "></polygon> <polygon class="st1" points="93.7,0.8 64,57.1 46.2,57.1 6.2,98.2 101,98.2 101,0.8 "></polygon> <path class="st0" d="M155.8,55.7c1.8-2.3,2.6-4.9,2.6-7.9c0-3.3-1-6.2-2.9-8.7c-1.9-2.4-4.5-4-7.6-4.7c2.7-0.8,4.9-2.2,6.5-4.3 c1.6-2.1,2.4-4.4,2.4-7c0-2.7-0.9-5-2.6-7c-1.7-2-4.2-3.6-7.3-4.7c-3.2-1.1-6.9-1.7-11.1-1.7l-26.9,0v53h28.2c4.3,0,8-0.6,11.2-1.8 C151.6,59.7,154.1,58,155.8,55.7z M126.5,22.6h8.4c1.2,0,2.2,0.3,2.9,1c0.7,0.7,1.1,1.6,1.1,2.7c0,1.2-0.4,2.1-1.1,2.8 c-0.7,0.7-1.7,1.1-2.9,1.1h-8.4V22.6z M138.8,48.7c-1,0.8-2.3,1.2-3.9,1.2h-8.4v-8.1h8.4c1.6,0,2.9,0.4,3.9,1.1 c1,0.7,1.5,1.6,1.5,2.8C140.2,46.9,139.8,47.9,138.8,48.7z"></path> <path class="st0" d="M199.6,9.7h-18l-22.4,53h18l2.7-7.5h19.9l2.6,7.5h18.7L199.6,9.7z M184.5,42.7l5.6-15.5l5.4,15.5H184.5z"></path> <path class="st0" d="M297,9.7l-22.4,53l-10.4-17.3c2.7-1.7,4.8-3.9,6.2-6.8c1.4-2.8,2.2-6.2,2.2-10c0-6.1-2-10.7-5.9-14 c-3.9-3.3-9.5-5-16.7-5h-25.7v53h17.6V49h6.6l6.4,13.8h19.8h0h18l2.7-7.5h19.9l2.6,7.5h18.7L315,9.7H297z M254.3,34 c-1,1.1-2.5,1.7-4.4,1.7h-8.1V23h8.1c1.9,0,3.4,0.5,4.4,1.6c1,1.1,1.6,2.6,1.6,4.6C255.9,31.3,255.4,32.8,254.3,34z M299.8,42.7 l5.6-15.5l5.4,15.5H299.8z"></path> <polygon class="st0" points="374.1,30.9 393.1,9.7 372.9,9.7 357.1,29.1 357.1,9.7 339.6,9.7 339.6,62.8 357.1,62.8 357.1,49.9 362.1,44.3 373.3,62.8 394.3,62.8 "></polygon> <g> <path class="st1" d="M110.8,76.5h2.7l6,11.6l6-11.6h2.7V93h-2.1l0-13.2l-5.9,11.4h-1.4l-5.9-11.4V93h-2.1V76.5z"></path> <path class="st1" d="M145.8,93l-1.7-4h-8.7l-1.7,4h-2.4l7.3-16.5h2.4l7.3,16.5H145.8z M136.2,87h6.9l-3.5-8L136.2,87z"></path> <path class="st1" d="M161.9,93l-3.3-5.2c-0.4,0-0.7,0-0.9,0h-4.2V93h-2.3V76.5h6.5c2.1,0,3.7,0.5,4.8,1.5s1.7,2.3,1.7,4.1 c0,1.3-0.3,2.5-0.9,3.4c-0.6,0.9-1.5,1.6-2.7,2l3.8,5.6H161.9z M157.7,85.8c1.4,0,2.5-0.3,3.3-0.9s1.1-1.5,1.1-2.7 c0-1.2-0.4-2.1-1.1-2.7s-1.8-0.9-3.3-0.9h-4.2v7.3H157.7z"></path> <path class="st1" d="M182.7,93h-2.7l-5.8-7.6l-3,3.3V93h-2.3V76.5h2.3v9.3l8.4-9.3h2.7l-6.5,7.1L182.7,93z"></path> <path class="st1" d="M186.1,76.5h11.5v2.1h-9.2v5.1h8.2v2.1h-8.2V91h9.5V93h-11.7V76.5z"></path> <path class="st1" d="M200,76.5h12.9v2.1h-5.3V93h-2.3V78.6H200V76.5z"></path> <path class="st1" d="M222.8,76.5h2.7l6,11.6l6-11.6h2.7V93h-2.1l0-13.2l-5.9,11.4h-1.4l-5.9-11.4V93h-2.1V76.5z"></path> <path class="st1" d="M257.8,93l-1.7-4h-8.7l-1.7,4h-2.4l7.3-16.5h2.4l7.3,16.5H257.8z M248.2,87h6.9l-3.5-8L248.2,87z"></path> <path class="st1" d="M277.1,93h-2.7l-5.8-7.6l-3,3.3V93h-2.3V76.5h2.3v9.3l8.4-9.3h2.7l-6.5,7.1L277.1,93z"></path> <path class="st1" d="M280.5,76.5h2.3V93h-2.3V76.5z"></path> <path class="st1" d="M299.8,76.5h2.2V93h-2.3l-9.4-12.8V93H288V76.5h2.3l9.5,12.8V76.5z"></path> <path class="st1" d="M318.8,85h2V91c-0.8,0.7-1.8,1.2-2.9,1.6c-1.1,0.4-2.2,0.6-3.3,0.6c-1.6,0-3-0.4-4.4-1.1 c-1.3-0.7-2.4-1.8-3.1-3.1s-1.1-2.7-1.1-4.3c0-1.5,0.4-3,1.2-4.2c0.8-1.3,1.8-2.3,3.2-3c1.3-0.7,2.8-1.1,4.4-1.1 c1.1,0,2.3,0.2,3.4,0.6c1.1,0.4,2,1,2.8,1.7l-1.3,1.6c-0.7-0.6-1.4-1.1-2.3-1.4c-0.9-0.3-1.7-0.5-2.6-0.5c-1.2,0-2.3,0.3-3.3,0.8 s-1.8,1.3-2.3,2.3c-0.6,1-0.9,2-0.9,3.2c0,1.2,0.3,2.2,0.9,3.2c0.6,1,1.4,1.8,2.4,2.3c1,0.6,2.1,0.9,3.3,0.9 c0.7,0,1.4-0.1,2.1-0.3c0.7-0.2,1.4-0.5,2-1V85z"></path> </g> </g> </svg> 