<?xml version="1.0" encoding="UTF-8" standalone="no"?>
<!-- Generator: Adobe Illustrator 23.0.6, SVG Export Plug-In . SVG Version: 6.00 Build 0)  -->

<svg
   version="1.1"
   id="Layer_1"
   x="0px"
   y="0px"
   width="41.298309"
   height="60.405415"
   viewBox="0 0 41.298311 60.405417"
   enable-background="new 0 0 340.317 66.089"
   xml:space="preserve"
   sodipodi:docname="goldilocks-v2.svg"
   inkscape:version="1.2.2 (b0a8486541, 2022-12-01)"
   xmlns:inkscape="http://www.inkscape.org/namespaces/inkscape"
   xmlns:sodipodi="http://sodipodi.sourceforge.net/DTD/sodipodi-0.dtd"
   xmlns="http://www.w3.org/2000/svg"
   xmlns:svg="http://www.w3.org/2000/svg"><defs
   id="defs31" /><sodipodi:namedview
   id="namedview29"
   pagecolor="#ffffff"
   bordercolor="#000000"
   borderopacity="0.25"
   inkscape:showpageshadow="2"
   inkscape:pageopacity="0.0"
   inkscape:pagecheckerboard="0"
   inkscape:deskcolor="#d1d1d1"
   showgrid="false"
   inkscape:zoom="3.4467865"
   inkscape:cx="116.9205"
   inkscape:cy="27.271779"
   inkscape:window-width="1614"
   inkscape:window-height="1227"
   inkscape:window-x="-8"
   inkscape:window-y="-8"
   inkscape:window-maximized="1"
   inkscape:current-layer="g6" />
<g
   id="g6"
   transform="translate(-53.179344,-5.6885789)">
	
	<path
   fill="none"
   stroke="#23103a"
   stroke-width="5.82"
   d="M 88.657,62.636 C 94.026,59.66 91.74,45.27 83.551,30.496 75.361,15.721 64.369,6.157 59,9.133 c -5.369,2.976 -3.083,17.366 5.106,32.141 8.19,14.774 19.182,24.338 24.551,21.362 z"
   id="path4" />
</g>
<polygon
   fill="#f26722"
   points="78.083,53.593 80.84,54.825 82.087,52.073 85.059,52.606 85.611,49.637 88.624,49.446 88.452,46.431 91.333,45.527 90.445,42.64 93.025,41.07 91.467,38.482 93.594,36.339 91.467,34.195 93.025,31.607 90.445,30.036 91.333,27.15 88.451,26.246 88.622,23.23 85.609,23.04 85.057,20.07 82.085,20.604 80.839,17.853 78.083,19.085 76.21,16.715 73.829,18.573 71.445,16.715 69.574,19.086 66.816,17.853 65.57,20.605 62.597,20.072 62.047,23.041 59.033,23.232 59.205,26.248 56.324,27.152 57.213,30.038 54.633,31.608 56.191,34.196 54.062,36.339 56.191,38.483 54.633,41.071 57.213,42.642 56.325,45.528 59.207,46.432 59.035,49.448 62.049,49.638 62.6,52.608 65.572,52.074 66.818,54.825 69.574,53.593 71.447,55.963 73.829,54.105 76.212,55.963 "
   id="polygon8"
   transform="translate(-53.179344,-5.6885789)" />
<g
   id="g14"
   transform="translate(-53.179344,-5.6885789)">
	<path
   fill="#f78f1e"
   d="m 73.829,51.352 c 8.292,0 15.014,-6.722 15.014,-15.014 0,-8.292 -6.723,-15.014 -15.014,-15.014 -8.292,0 -15.014,6.722 -15.014,15.014 0,8.292 6.721,15.014 15.014,15.014"
   id="path10" />
	<path
   fill="none"
   stroke="#23103a"
   stroke-width="5.82"
   d="m 59,9.133 c -5.369,2.976 -3.083,17.366 5.106,32.14 7.862,14.184 18.307,23.565 23.88,21.66"
   id="path12" />
</g>
<g
   id="g16"
   transform="translate(-53.179344,-5.6885789)">
</g>
<g
   id="g18"
   transform="translate(-53.179344,-5.6885789)">
</g>
<g
   id="g20"
   transform="translate(-53.179344,-5.6885789)">
</g>
<g
   id="g22"
   transform="translate(-53.179344,-5.6885789)">
</g>
<g
   id="g24"
   transform="translate(-53.179344,-5.6885789)">
</g>
<g
   id="g26"
   transform="translate(-53.179344,-5.6885789)">
</g>
</svg>
